<svg xmlns="http://www.w3.org/2000/svg" version="1.1" xmlns:xlink="http://www.w3.org/1999/xlink" xmlns:svgjs="http://svgjs.com/svgjs" width="1440" height="560" preserveAspectRatio="none" viewBox="0 0 1440 560"><g mask="url(&quot;#SvgjsMask1000&quot;)" fill="none"><rect width="1440" height="560" x="0" y="0" fill="#1e3266"></rect><path d="M1488 560L0 560 L0 302.44Q73.77 256.21, 120 329.98Q195.44 285.43, 240 360.87Q306.71 307.58, 360 374.29Q364.86 307.15, 432 312.02Q458.13 266.14, 504 292.27Q558.59 274.86, 576 329.45Q626.63 308.08, 648 358.71Q671.4 262.12, 768 285.52Q812.23 257.75, 840 301.97Q907.68 297.65, 912 365.34Q928.13 309.46, 984 325.59Q1026.17 247.76, 1104 289.94Q1193.17 259.11, 1224 348.28Q1240.95 293.23, 1296 310.18Q1321.36 263.53, 1368 288.89Q1453.85 254.74, 1488 340.59z" fill="#182f5d"></path><path d="M1488 560L0 560 L0 424.59Q25.17 377.75, 72 402.92Q153.08 364, 192 445.09Q246.07 379.16, 312 433.23Q363.28 364.51, 432 415.79Q481.45 345.24, 552 394.69Q568.08 338.76, 624 354.84Q694.84 305.67, 744 376.51Q786.79 347.31, 816 390.1Q863.04 365.14, 888 412.18Q904.46 356.63, 960 373.09Q1004.88 345.96, 1032 390.84Q1049.62 336.46, 1104 354.08Q1188.91 318.99, 1224 403.9Q1299.88 359.78, 1344 435.66Q1345.64 365.3, 1416 366.94Q1444.3 323.24, 1488 351.53z" fill="#25467d"></path><path d="M1464 560L0 560 L0 459.85Q16.32 404.18, 72 420.5Q137.32 365.82, 192 431.15Q251.08 418.23, 264 477.31Q288.23 429.54, 336 453.78Q362.85 408.63, 408 435.47Q461.48 368.95, 528 422.43Q614.33 388.76, 648 475.1Q704.66 459.76, 720 516.42Q741.4 465.82, 792 487.22Q817.88 441.1, 864 466.98Q886.78 417.76, 936 440.55Q1027.65 412.2, 1056 503.85Q1081.84 457.69, 1128 483.52Q1165.28 400.8, 1248 438.08Q1297.21 415.29, 1320 464.51Q1366.93 439.44, 1392 486.37Q1403.34 425.71, 1464 437.05z" fill="#356cb1"></path><path d="M1536 560L0 560 L0 503.5Q49.86 481.36, 72 531.21Q152.25 491.46, 192 571.71Q234.38 542.1, 264 584.48Q298.07 498.55, 384 532.62Q410.52 487.14, 456 513.67Q507.92 493.59, 528 545.51Q555.56 501.07, 600 528.62Q645.31 453.93, 720 499.25Q819.75 479, 840 578.76Q850.33 517.09, 912 527.42Q931.88 475.3, 984 495.19Q1030.1 469.28, 1056 515.38Q1134.06 473.44, 1176 551.51Q1207.88 463.39, 1296 495.27Q1367.05 446.31, 1416 517.36Q1509.43 490.79, 1536 584.21z" fill="white"></path></g><defs><mask id="SvgjsMask1000"><rect width="1440" height="560" fill="#ffffff"></rect></mask></defs></svg>